<?xml version="1.0" encoding="UTF-8"?>
<svg id="Layer_2" data-name="Layer 2" xmlns="http://www.w3.org/2000/svg" viewBox="0 0 633.75 633.75">
  <defs>
    <style>
      .cls-1 {
        fill: #2d3d4f;
      }

      .cls-2 {
        fill: #fff;
      }
    </style>
  </defs>
  <polygon class="cls-2" points="523.49 384.06 570.39 242.73 482.3 290.9 439.2 417.65 523.49 384.06"/>
  <polygon class="cls-2" points="351.74 426.51 415.11 413.84 465.18 321.31 397.08 344.01 351.74 426.51"/>
  <polygon class="cls-2" points="329.87 356.18 282.02 408.15 333.99 403.08 377.72 356.18 329.87 356.18"/>
  <path class="cls-2" d="M294.06,237.76c36.57,0,65.2,14.66,84.28,39.18-17.28-41.12-56.61-69.75-104.94-69.75-43.95,0-80.23,21.2-100.65,53.09,15.44.68,32.17,2.06,50.01,4.23,18.91-17.06,43.93-26.75,71.29-26.75h.01Z"/>
  <polygon class="cls-2" points="285.77 338.21 229.42 372.65 274.41 381.53 325.75 351.1 285.77 338.21"/>
  <path class="cls-2" d="M156.13,340.79c5.99,42.09,32.15,73.32,70.32,86.87-24.17-19.26-40.2-47.69-40.2-81.38,0-.09.01-.18.01-.27,2.63.39,5.32.61,8,.97.04-.17.09-.11.14-.28-2.7-.46-5.4-1.13-8.09-1.64.24-21.92,7.07-42.4,18.52-59.58,14.12.28,29.03,1.03,44.23,2.24,58.12,4.61,129.56,19.56,165.18,36.35-20.65-20.82-81.82-38.78-166.92-49.81-10.58-1.37-20.9-2.49-30.93-3.39-17.05-1.53-33.24-2.41-48.24-2.67-60.29-1.01-101.64,7.98-104.14,24.24-2.94,19.16,35.79,36.93,92.11,48.33v.02ZM106.39,305.6c1.5-10.65,22.83-16.78,54.05-19.12-3.63,11.19-5.63,23.11-5.62,35.53,0,5.57.4,10.96,1.04,16.21-29.33-7.93-51.42-18.77-49.46-32.62h-.01Z"/>
  <polygon class="cls-2" points="256.68 313.06 210.18 329.23 239.57 339.68 281.4 328.27 256.68 313.06"/>
  <path class="cls-1" d="M579.69,0H54.07C24.21,0,0,24.21,0,54.07v525.61c0,29.86,24.21,54.07,54.07,54.07h525.61c29.86,0,54.07-24.21,54.07-54.07V54.07c0-29.86-24.21-54.07-54.07-54.07h.01ZM216.4,270.88c10.04.9,20.36,2.02,30.93,3.39,85.1,11.03,146.28,28.98,166.92,49.81-35.61-16.8-107.05-31.74-165.18-36.35-15.2-1.21-30.11-1.96-44.23-2.24-11.45,17.18-18.28,37.66-18.52,59.58,2.69.5,5.39,1.18,8.09,1.64-.05.17-.1.11-.14.28-2.68-.36-5.37-.58-8-.97,0,.09-.01.18-.01.27,0,33.68,16.03,62.12,40.2,81.38-38.18-13.55-64.33-44.78-70.32-86.87-56.32-11.41-95.05-29.17-92.11-48.33,2.5-16.26,43.84-25.25,104.14-24.24,15,.25,31.19,1.13,48.24,2.67v-.02ZM172.75,260.28c20.42-31.89,56.7-53.09,100.65-53.09,48.33,0,87.66,28.64,104.94,69.75-19.08-24.52-47.72-39.18-84.28-39.18-27.37,0-52.39,9.7-71.29,26.75-17.84-2.17-34.57-3.55-50.01-4.23h-.01ZM285.77,338.21l39.97,12.89-51.33,30.42-45-8.87,56.36-34.44h0ZM210.18,329.23l46.5-16.17,24.72,15.21-41.83,11.41-29.39-10.45h0ZM329.87,356.18h47.85l-43.73,46.9-51.97,5.07,47.85-51.97ZM397.08,344.01l68.09-22.7-50.07,92.53-63.38,12.68,45.35-82.5h.01ZM523.49,384.06l-84.29,33.59,43.1-126.75,88.09-48.17-46.9,141.33Z"/>
  <path class="cls-1" d="M155.86,338.22c-.64-5.26-1.03-10.64-1.04-16.21,0-12.42,2-24.34,5.62-35.53-31.22,2.35-52.55,8.47-54.05,19.12-1.96,13.85,20.13,24.69,49.46,32.62h.01Z"/>
</svg>