<?xml version="1.0" encoding="UTF-8"?>
<svg id="Layer_2" data-name="Layer 2" xmlns="http://www.w3.org/2000/svg" viewBox="0 0 633.75 633.75">
  <defs>
    <style>
      .cls-1 {
        fill: #fff;
      }
    </style>
  </defs>
  <path class="cls-1" d="M579.69,0H54.07C24.21,0,0,24.21,0,54.07v525.61c0,29.86,24.21,54.07,54.07,54.07h525.61c29.86,0,54.07-24.21,54.07-54.07V54.07c0-29.86-24.21-54.07-54.07-54.07h.01ZM216.4,270.88c10.04.9,20.36,2.02,30.93,3.39,85.1,11.03,146.28,28.98,166.92,49.81-35.61-16.8-107.05-31.74-165.18-36.35-15.2-1.21-30.11-1.96-44.23-2.24-11.45,17.18-18.28,37.66-18.52,59.58,2.69.5,5.39,1.18,8.09,1.64-.05.17-.1.11-.14.28-2.68-.36-5.37-.58-8-.97,0,.09-.01.18-.01.27,0,33.68,16.03,62.12,40.2,81.38-38.18-13.55-64.33-44.78-70.32-86.87-56.32-11.41-95.05-29.17-92.11-48.33,2.5-16.26,43.84-25.25,104.14-24.24,15,.25,31.19,1.13,48.24,2.67v-.02ZM172.75,260.28c20.42-31.89,56.7-53.09,100.65-53.09,48.33,0,87.66,28.64,104.94,69.75-19.08-24.52-47.72-39.18-84.28-39.18-27.37,0-52.39,9.7-71.29,26.75-17.84-2.17-34.57-3.55-50.01-4.23h-.01ZM285.77,338.21l39.97,12.89-51.33,30.42-45-8.87,56.36-34.44h0ZM210.18,329.23l46.5-16.17,24.72,15.21-41.83,11.41-29.39-10.45h0ZM329.87,356.18h47.85l-43.73,46.9-51.97,5.07,47.85-51.97ZM397.08,344.01l68.09-22.7-50.07,92.53-63.38,12.68,45.35-82.5h.01ZM523.49,384.06l-84.29,33.59,43.1-126.75,88.09-48.17-46.9,141.33Z"/>
  <path class="cls-1" d="M155.86,338.22c-.64-5.26-1.03-10.64-1.04-16.21,0-12.42,2-24.34,5.62-35.53-31.22,2.35-52.55,8.47-54.05,19.12-1.96,13.85,20.13,24.69,49.46,32.62h.01Z"/>
</svg>